<svg width="32" height="32" viewBox="0 0 32 32" fill="none" xmlns="http://www.w3.org/2000/svg">
<path d="M2 16C2 12.287 3.475 8.72601 6.1005 6.1005C8.72601 3.475 12.287 2 16 2C19.713 2 23.274 3.475 25.8995 6.1005C28.525 8.72601 30 12.287 30 16C30 19.713 28.525 23.274 25.8995 25.8995C23.274 28.525 19.713 30 16 30C12.287 30 8.72601 28.525 6.1005 25.8995C3.475 23.274 2 19.713 2 16ZM21.708 13.708C21.8958 13.5202 22.0013 13.2656 22.0013 13C22.0013 12.7344 21.8958 12.4798 21.708 12.292C21.5202 12.1042 21.2656 11.9987 21 11.9987C20.7344 11.9987 20.4798 12.1042 20.292 12.292L14.5 18.086L11.708 15.292C11.615 15.199 11.5046 15.1253 11.3832 15.075C11.2617 15.0246 11.1315 14.9987 11 14.9987C10.8685 14.9987 10.7383 15.0246 10.6168 15.075C10.4954 15.1253 10.385 15.199 10.292 15.292C10.199 15.385 10.1253 15.4954 10.075 15.6168C10.0246 15.7383 9.99874 15.8685 9.99874 16C9.99874 16.1315 10.0246 16.2617 10.075 16.3832C10.1253 16.5046 10.199 16.615 10.292 16.708L13.792 20.208C13.8849 20.3011 13.9952 20.375 14.1167 20.4254C14.2382 20.4758 14.3685 20.5018 14.5 20.5018C14.6315 20.5018 14.7618 20.4758 14.8833 20.4254C15.0048 20.375 15.1151 20.3011 15.208 20.208L21.708 13.708Z" fill="#C81E23"/>
</svg>
