<svg version="1.1" id="Layer_1" xmlns="http://www.w3.org/2000/svg" xmlns:xlink="http://www.w3.org/1999/xlink" x="0px" y="0px"
	 width="100%" viewBox="0 0 496 496" enable-background="new 0 0 496 496" xml:space="preserve">
<path fill="#000000" opacity="1.000000" stroke="none" 
	d="
M35.000000,1.000000 
	C188.965790,1.000000 342.931580,1.000000 496.948669,1.000000 
	C496.948669,166.262375 496.948669,331.524780 496.948669,496.893585 
	C331.774384,496.893585 166.548691,496.893585 1.000000,496.893585 
	C1.000000,339.976074 1.000000,182.951920 1.255733,25.678310 
	C2.236935,25.807222 2.993769,26.562056 3.682929,26.504637 
	C9.392836,26.028906 14.329714,28.049013 19.393030,30.428112 
	C25.776167,33.427361 37.048145,27.681959 39.086735,20.947456 
	C39.449139,19.750244 39.472267,18.584036 38.783497,17.591282 
	C36.184029,13.844556 36.213627,9.737117 37.303768,5.624319 
	C37.956680,3.161045 37.200291,1.828999 35.000000,1.000000 
M364.146637,379.472107 
	C376.916138,369.442993 387.954468,357.727844 396.770447,344.138062 
	C403.442627,333.852966 408.859161,322.809479 414.078278,311.689819 
	C421.778229,295.284637 426.313782,277.995819 427.477051,260.022125 
	C429.034821,235.954224 425.146393,212.440582 418.148438,189.424988 
	C411.386871,167.186935 397.435364,149.490845 381.734741,133.094437 
	C375.567902,126.654305 368.175934,121.395584 361.418427,115.510994 
	C348.438049,104.207382 334.291168,94.779373 317.832153,89.402000 
	C307.632324,86.069595 297.519012,82.555550 286.724884,80.967346 
	C277.274567,79.576881 268.037292,76.785835 258.372375,76.387764 
	C243.478180,75.774315 228.984818,77.998978 214.481491,81.227966 
	C193.652878,85.865204 174.224365,93.803490 156.309311,105.167442 
	C140.654877,115.097420 126.887825,127.388931 115.582329,142.194412 
	C110.503731,148.845245 104.593864,155.014679 101.325798,164.234085 
	C105.990089,162.051208 109.015190,159.595825 110.979012,155.485275 
	C114.037338,158.049530 114.050529,160.499146 111.868034,162.981445 
	C109.617622,165.540985 108.008064,168.500519 106.952492,171.619522 
	C102.207069,185.641281 97.192574,199.609955 95.406815,214.428024 
	C95.217377,215.999939 94.774834,217.260529 93.725807,218.443741 
	C89.106674,223.653687 86.409447,229.907181 84.076286,236.365509 
	C83.460732,238.069427 82.957031,240.391388 81.656860,241.146439 
	C79.182381,242.583389 79.386993,244.519516 79.375923,246.649933 
	C79.311783,258.994019 80.966911,271.152802 84.115883,283.039551 
	C87.406845,295.462341 89.009354,308.664124 100.187126,317.632965 
	C105.386620,321.804932 110.005852,327.021332 116.287270,329.258667 
	C121.739037,331.200439 124.147606,334.615570 126.679192,339.509979 
	C133.923141,353.515015 143.865204,365.629333 155.624496,376.192352 
	C156.607239,377.075073 157.609879,377.848328 158.264740,379.107513 
	C163.856506,389.859680 170.950455,399.155701 182.619308,404.003906 
	C185.072250,405.023071 187.389954,406.370880 189.758499,407.589508 
	C204.261520,415.051697 219.760162,419.382904 235.919525,420.434906 
	C247.997940,421.221222 260.234619,421.423279 272.273224,419.395752 
	C277.568604,418.503876 283.896179,419.494781 286.917450,412.962860 
	C287.646729,411.386169 289.543549,412.063080 291.022522,412.016022 
	C296.550507,411.840118 302.499084,412.777283 307.517273,411.050964 
	C320.333069,406.642242 332.412689,400.452271 343.988586,393.242859 
	C350.475677,389.202728 355.843048,383.624115 363.171112,379.967255 
	C363.311920,379.873199 363.452759,379.779114 364.146637,379.472107 
z"/>
<path fill="#000000" opacity="1.000000" stroke="none" 
	d="
M273.264465,167.486374 
	C274.570343,164.848679 276.780762,164.556015 278.917175,164.215012 
	C294.074402,161.795624 309.321014,160.586044 324.673615,161.111771 
	C331.116241,161.332413 336.582611,163.719391 340.840424,168.768814 
	C351.922974,181.911774 361.960236,195.764679 370.013367,210.996262 
	C371.458069,213.728745 372.004028,216.554382 371.525757,219.656586 
	C369.592621,232.194458 366.507019,244.407120 361.835388,256.226715 
	C360.542053,259.498932 358.489594,261.227997 355.064484,262.013855 
	C339.019287,265.695282 323.001495,269.499207 307.004913,273.386841 
	C304.001129,274.116821 302.144440,273.254883 300.148102,270.956665 
	C286.936890,255.748001 273.583893,240.658707 258.543182,227.189682 
	C257.139038,225.932251 256.609833,224.969635 257.221191,222.971664 
	C262.816956,204.685135 268.425354,186.399261 273.264465,167.486374 
z"/>
<path fill="#000000" opacity="1.000000" stroke="none" 
	d="
M141.905167,309.380005 
	C138.146942,308.977661 134.854141,308.471191 131.542068,308.232483 
	C129.160843,308.060852 128.062744,306.570831 127.100716,304.742889 
	C125.227982,301.184387 123.964653,297.397156 122.983803,293.519409 
	C119.719574,280.614319 116.741035,267.657379 115.129517,254.410553 
	C114.135674,246.241013 116.599045,239.871292 123.433472,235.010208 
	C132.938126,228.249863 142.644150,221.817017 152.584610,215.723267 
	C156.994385,213.020004 160.583755,212.686646 165.012115,216.642502 
	C175.307465,225.839371 186.202576,234.366562 196.896851,243.113525 
	C198.808823,244.677353 200.923706,245.993073 203.042114,247.492142 
	C195.484161,266.052795 191.427658,285.585052 187.644882,305.143250 
	C186.794876,309.538055 184.544495,310.155487 181.272644,310.201263 
	C168.295074,310.382751 155.304169,310.985046 141.905167,309.380005 
z"/>
<path fill="#000000" opacity="1.000000" stroke="none" 
	d="
M260.417694,404.996582 
	C241.813263,401.847961 224.326401,396.800659 208.354782,387.300049 
	C202.061096,383.556274 201.311279,382.322144 202.754440,375.218079 
	C205.198761,363.185577 207.158691,351.045471 211.007355,339.316193 
	C212.194824,335.697235 213.882324,334.373840 217.770828,334.654877 
	C234.468674,335.861664 251.148758,334.679474 267.210266,330.279419 
	C274.526520,328.275116 277.646118,329.913452 281.661865,335.686981 
	C288.865692,346.044128 297.103760,355.695465 305.143341,365.449097 
	C307.419556,368.210602 307.839600,370.675537 306.013336,373.544342 
	C298.917480,384.690826 290.822632,395.039917 280.240295,403.080200 
	C274.392517,407.523163 267.404755,405.136963 260.417694,404.996582 
z"/>
<path fill="#000000" opacity="1.000000" stroke="none" 
	d="
M243.393173,97.936356 
	C239.699066,108.801880 235.997253,119.297798 232.324905,129.804016 
	C231.847229,131.170639 231.128555,131.984406 229.578949,132.277924 
	C211.769501,135.651413 197.160522,145.545975 182.588638,155.489426 
	C178.874039,158.024139 175.663391,161.166794 172.748856,164.255325 
	C170.617218,164.513733 169.821091,163.066986 168.822388,162.028748 
	C161.779831,154.707672 154.647034,147.491104 146.343063,141.553329 
	C144.476944,140.218964 142.835037,138.763657 145.230118,136.490005 
	C152.785110,140.891083 158.164459,148.091721 166.333527,151.446716 
	C171.618774,153.617340 176.355576,154.160614 181.095978,149.851059 
	C184.767090,146.513626 189.133026,143.944626 193.162338,140.996078 
	C198.545380,137.056885 202.021561,131.937454 204.506531,125.619354 
	C208.692001,114.977715 216.677063,107.143944 225.793030,100.472603 
	C228.336884,98.610939 230.992599,96.902893 233.564117,95.078056 
	C237.105896,92.564697 240.962112,93.524704 243.393173,97.936356 
z"/>
<path fill="#000000" opacity="1.000000" stroke="none" 
	d="
M362.960907,380.109955 
	C361.285461,380.252655 359.820221,380.252655 357.854828,380.252655 
	C358.450287,372.061157 356.171204,364.446350 353.817993,356.835449 
	C353.308319,355.186951 353.724121,353.645020 354.780792,352.146057 
	C363.740295,339.436432 370.684906,325.648254 376.282135,311.178497 
	C377.006805,309.305115 378.135437,309.107330 379.754120,308.458740 
	C385.787994,306.041138 392.467987,307.938019 399.523132,304.298889 
	C397.661346,307.132965 396.621582,308.762604 395.535461,310.360748 
	C391.501129,316.297089 387.964996,322.371307 386.502563,329.613831 
	C384.965424,337.226288 380.534424,343.697876 376.496185,350.147644 
	C372.284851,356.873962 369.012909,363.852295 367.458099,371.607758 
	C366.884125,374.470856 365.655029,376.936401 363.712677,379.421448 
	C363.452759,379.779114 363.311920,379.873199 362.960907,380.109955 
z"/>
<path fill="#000000" opacity="1.000000" stroke="none" 
	d="
M358.919067,126.039612 
	C352.476501,123.173935 346.188019,121.036736 339.578064,120.025948 
	C338.285492,119.828300 336.591858,118.692726 335.560974,120.578987 
	C332.819580,125.595009 331.068085,123.063087 328.441010,120.149406 
	C318.721680,109.369774 306.750763,101.575966 293.609344,95.648354 
	C289.544525,93.814857 288.225616,91.670990 290.137482,87.945366 
	C322.985443,90.908951 347.861542,110.043587 373.048096,128.499924 
	C374.272003,129.396774 375.154480,131.058990 374.240173,133.738571 
	C369.160400,131.187469 364.207794,128.700226 358.919067,126.039612 
M309.671112,96.900192 
	C320.244324,101.508026 329.765839,108.496376 341.312622,110.924103 
	C330.173859,103.490807 319.321808,95.466942 305.813232,93.141991 
	C305.627960,93.521004 305.442688,93.900017 305.257416,94.279037 
	C306.517059,95.060646 307.776672,95.842255 309.671112,96.900192 
z"/>
<path fill="#000000" opacity="1.000000" stroke="none" 
	d="
M414.167297,186.634033 
	C420.524902,203.677200 419.599304,221.293137 422.518921,239.367462 
	C418.943909,237.938400 418.942749,236.130188 418.419220,234.611725 
	C414.799469,224.112549 412.091644,213.157516 403.641846,205.061630 
	C403.223602,204.660919 402.832794,203.801483 402.973663,203.312576 
	C404.788818,197.013840 402.115295,190.855057 402.421967,183.643372 
	C404.968811,188.538742 403.669678,193.580536 406.408173,198.074875 
	C406.452423,179.984573 397.798523,165.493500 390.089722,150.586884 
	C404.864044,158.103897 408.558960,172.803040 414.167297,186.634033 
z"/>
<path fill="#000000" opacity="1.000000" stroke="none" 
	d="
M153.096375,123.881546 
	C162.034149,113.141747 172.850525,105.198952 184.284409,97.953369 
	C193.654984,92.015289 204.015320,91.874710 214.763580,92.572739 
	C188.031387,94.227089 169.893723,111.083069 151.824402,127.823463 
	C150.377563,126.902763 151.316635,126.295197 151.674118,125.715431 
	C152.021408,125.152260 152.474136,124.654114 153.096375,123.881546 
z"/>
<path fill="#000000" opacity="1.000000" stroke="none" 
	d="
M404.021606,299.093994 
	C405.663086,296.807617 406.988434,294.436493 410.086609,294.335785 
	C410.029938,299.212219 407.877777,300.901520 404.021606,299.093994 
z"/>
</svg>