<svg version="1.1" id="Layer_1" xmlns="http://www.w3.org/2000/svg" xmlns:xlink="http://www.w3.org/1999/xlink" x="0px" y="0px"
	 width="100%" viewBox="0 0 645 387" enable-background="new 0 0 645 387" xml:space="preserve">
<path fill="#000000" opacity="1.000000" stroke="none" 
	d="
M484.000000,388.000000 
	C322.705597,388.000000 161.911194,388.000000 1.058396,388.000000 
	C1.058396,259.070190 1.058396,130.140320 1.058396,1.105233 
	C215.877762,1.105233 430.755585,1.105233 645.816711,1.105233 
	C645.816711,129.999786 645.816711,258.999878 645.816711,388.000000 
	C592.140259,388.000000 538.320129,388.000000 484.000000,388.000000 
M291.231110,337.790253 
	C288.619476,337.314941 286.007843,336.839600 283.396210,336.364258 
	C283.299286,337.632660 282.875732,338.990295 283.191467,340.145966 
	C283.553833,341.472351 284.655029,342.578735 285.281036,343.856293 
	C285.917236,345.154694 286.365479,346.545197 286.896027,347.895386 
	C287.458588,346.587097 288.009033,345.273407 288.587555,343.972168 
	C289.050873,342.929993 287.273895,339.945099 290.533112,342.224396 
	C290.297302,346.407288 293.125244,348.004272 296.416656,347.702545 
	C300.047241,347.369690 301.562836,344.511688 300.996979,340.849701 
	C300.400177,336.987030 296.328735,335.695160 291.231110,337.790253 
M312.968750,341.178986 
	C313.023010,342.504395 312.748138,343.965485 313.223083,345.117462 
	C313.709381,346.297058 314.930176,347.173828 315.829498,348.183136 
	C316.164795,347.842987 316.500092,347.502838 316.835419,347.162689 
	C316.947510,345.066895 317.059631,342.971069 317.182770,340.669373 
	C318.237122,340.906586 319.015350,341.081665 319.811310,341.260742 
	C319.307404,343.436279 318.830505,345.495087 318.353638,347.553894 
	C319.079224,348.158081 319.804810,348.762238 320.530426,349.366394 
	C320.945709,347.426056 321.360992,345.485718 321.776276,343.545349 
	C322.137604,344.436432 322.498962,345.327545 322.860291,346.218628 
	C326.653107,346.955322 330.445923,347.691986 333.745239,348.332825 
	C334.208527,345.039185 334.521973,342.810852 334.835419,340.582489 
	C335.354156,340.635437 335.872864,340.688354 336.391602,340.741272 
	C336.480957,342.171844 336.361145,343.658936 336.727417,345.014709 
	C337.008820,346.056366 337.902405,346.932678 338.523743,347.882507 
	C339.223816,346.857178 340.116669,345.910553 340.575531,344.786743 
	C341.158234,343.359589 341.052856,341.578003 341.839966,340.322906 
	C343.562988,337.575470 343.388031,336.637695 340.245422,336.409180 
	C337.501862,336.209717 334.690155,336.154694 331.980743,336.541473 
	C329.996033,336.824799 328.128265,337.927307 326.271667,338.640381 
	C325.644897,338.194885 324.436157,336.669769 323.050262,336.486877 
	C320.000854,336.084473 316.859436,336.277618 313.760193,336.375153 
	C306.251221,336.611420 306.275757,336.646942 305.790771,343.976593 
	C305.732819,344.852112 305.250183,345.699493 304.545441,347.821289 
	C307.177307,347.389160 309.506958,347.674316 310.438263,346.666840 
	C311.378418,345.649841 310.931671,343.350830 311.772888,341.101471 
	C311.987946,340.916260 312.203033,340.731018 312.968750,341.178986 
M413.702423,62.340405 
	C409.077545,60.643764 404.452637,58.947124 399.178864,57.012436 
	C399.178864,89.934586 399.178864,121.453049 399.009308,153.865005 
	C399.009308,156.487946 399.009308,159.110901 399.009308,162.237289 
	C407.569794,160.541687 415.494202,158.816406 418.665985,149.986984 
	C419.908600,146.527878 420.591125,142.551239 420.274048,138.919876 
	C419.755829,132.985886 420.515106,128.787155 427.463409,127.797211 
	C429.424774,127.517776 431.182831,125.811325 433.005463,124.775665 
	C433.005463,116.593849 432.859833,108.612022 433.057556,100.638710 
	C433.185883,95.463310 431.297363,92.335800 426.462189,91.027458 
	C424.466400,90.487434 422.443970,90.045914 420.083038,89.474770 
	C420.083038,84.426689 420.526672,79.574219 419.954742,74.844566 
	C419.413300,70.367256 418.475800,65.676323 413.702423,62.340405 
M232.259933,156.659836 
	C237.208633,158.649078 242.157333,160.638321 247.722687,162.875443 
	C247.722687,127.276245 247.722687,92.851952 247.722687,57.338181 
	C244.064011,58.582222 240.848831,59.675461 236.932083,60.631691 
	C224.655685,67.084488 226.632874,78.765427 226.578125,89.578438 
	C224.760345,90.103836 223.210312,90.601715 221.634796,90.998367 
	C215.618210,92.513054 214.133835,94.379265 214.135162,100.519310 
	C214.135956,104.180443 214.138306,107.841583 214.137451,111.502716 
	C214.134201,125.270782 214.133804,125.270782 226.881958,130.654007 
	C225.151733,139.679001 225.994217,148.398819 232.259933,156.659836 
M267.797058,176.001038 
	C270.510040,176.473190 273.207642,177.172379 275.940063,177.357101 
	C279.010681,177.564697 282.112762,177.307877 285.201141,177.253082 
	C285.125000,175.132965 285.048370,173.012863 284.973602,170.892700 
	C284.967743,170.726395 284.975952,170.559631 284.975952,170.393082 
	C284.975983,156.402649 285.071594,142.411118 284.908295,128.422592 
	C284.867584,124.934738 285.930664,123.845680 289.461090,123.870491 
	C313.276276,124.037842 337.092926,124.001633 361.246490,124.822845 
	C361.511200,126.383385 361.993011,127.942070 362.006378,129.504761 
	C362.116180,142.324814 362.138794,155.145615 362.016327,168.869110 
	C362.016327,171.803726 362.016327,174.738342 362.016327,178.089554 
	C367.242004,177.617416 371.779236,177.046051 376.333252,176.831573 
	C384.360504,176.453552 391.816254,168.880447 391.814819,160.880478 
	C391.808838,127.443871 391.573151,94.004570 391.960754,60.572502 
	C392.060791,51.944389 388.518677,47.053226 380.205566,43.947865 
	C374.317841,43.085007 368.430115,42.222149 361.931305,41.269737 
	C361.931305,60.329109 361.931305,78.041946 361.931305,96.000359 
	C337.039490,96.000359 312.597198,96.014244 288.155090,95.952522 
	C287.114960,95.949898 286.076599,95.246819 285.000244,93.949806 
	C285.000244,76.750450 285.000244,59.551090 285.000244,42.266575 
	C280.625336,42.266575 276.844086,42.266575 272.215729,42.435200 
	C271.277313,42.662182 270.311096,42.809948 269.404755,43.128262 
	C259.150543,46.729542 254.960190,49.770988 255.082642,61.138565 
	C255.437332,94.067123 255.202606,127.002045 255.199539,159.934464 
	C255.198700,168.913116 257.376465,171.291229 267.797058,176.001038 
M301.589050,202.751572 
	C299.977478,202.751572 298.365936,202.751572 296.727020,202.751572 
	C296.727020,219.094406 296.727020,234.937302 296.727020,250.595901 
	C300.354675,250.595901 303.581848,250.595901 307.377014,250.595901 
	C307.377014,241.724670 307.377014,233.242157 307.377014,224.759644 
	C312.208038,230.326004 316.509552,235.905380 319.630280,242.081375 
	C324.081360,250.889954 323.711670,251.079575 333.373230,250.976486 
	C334.194977,250.967728 335.015961,250.887970 336.340576,250.812546 
	C336.340576,234.776169 336.340576,218.832611 336.340576,202.834015 
	C332.584076,202.834015 329.468292,202.834015 325.743225,202.834015 
	C325.743225,212.254196 325.743225,221.525711 325.743225,230.797211 
	C321.151825,224.438004 317.873444,217.668777 313.681793,211.522385 
	C311.019775,207.619003 309.824371,200.936752 301.589050,202.751572 
M357.453949,240.533386 
	C355.347382,240.533386 353.240814,240.533386 350.945984,240.533386 
	C350.945984,237.627365 350.945984,235.262939 350.945984,232.526993 
	C357.069763,232.526993 362.833710,232.526993 368.975037,232.526993 
	C368.975037,230.524231 368.783081,228.868607 369.011200,227.273056 
	C369.681915,222.581757 368.056213,220.585709 363.074371,221.088562 
	C359.024506,221.497345 354.900482,221.171585 350.910370,221.171585 
	C350.910370,218.413269 350.910370,216.337051 350.910370,213.762344 
	C357.119873,213.762344 363.014465,213.762344 368.749329,213.762344 
	C368.749329,209.804367 368.749329,206.366226 368.749329,203.104523 
	C358.815613,203.104523 349.116974,203.104523 339.530640,203.104523 
	C339.530640,219.277100 339.530640,235.000122 339.530640,250.749756 
	C349.455902,250.749756 359.035767,250.749756 368.668396,250.749756 
	C368.668396,247.247742 368.668396,244.037842 368.668396,240.532837 
	C365.063507,240.532837 361.755432,240.532837 357.453949,240.533386 
M419.934509,240.029373 
	C417.331970,239.130264 414.729401,238.231155 412.412048,237.430573 
	C409.970154,239.586655 407.634277,241.649109 404.099884,244.769821 
	C409.445618,247.144989 413.690521,249.227051 418.080688,250.935852 
	C424.743500,253.529282 434.904510,246.377380 436.388336,241.022430 
	C438.572266,233.140533 435.058197,222.515656 421.826324,222.018936 
	C418.934448,221.910355 415.749817,221.091919 416.237732,217.291061 
	C416.729065,213.463608 419.915222,213.576599 422.831909,214.185867 
	C429.126862,215.500900 432.287659,213.823959 434.712952,207.730072 
	C433.123566,206.912903 431.506134,206.155258 429.959717,205.273178 
	C423.899109,201.816254 416.182465,202.073074 411.223328,205.941376 
	C406.219879,209.844208 404.000854,216.152908 405.826630,221.890778 
	C407.310638,226.554504 413.645203,233.280472 420.983795,232.829361 
	C422.687744,232.724640 424.539246,235.020294 426.322845,236.211441 
	C424.446899,237.602310 422.570953,238.993164 419.934509,240.029373 
M393.641937,250.245728 
	C396.709869,247.223068 401.051697,244.737915 402.597961,241.073212 
	C406.636047,231.502914 400.056244,223.437729 388.507263,221.874359 
	C386.421295,221.591980 383.138458,218.848816 383.095703,217.173126 
	C383.011627,213.879135 386.720245,213.100021 389.130798,214.154343 
	C395.843445,217.090332 398.693512,213.035614 401.753784,207.731369 
	C398.101929,206.197891 394.620728,204.390778 390.931549,203.265457 
	C384.951721,201.441406 377.062561,204.708694 374.244019,209.763779 
	C370.297028,216.842728 371.087921,223.267853 377.395020,228.095459 
	C380.314423,230.330078 384.393860,230.987885 387.760345,232.723328 
	C389.705109,233.725861 392.800110,235.560654 392.708832,236.828781 
	C392.501648,239.706985 390.006958,241.048904 386.834045,239.825287 
	C384.889069,239.075211 382.894714,238.435791 380.886810,237.874588 
	C380.048981,237.640411 378.786530,237.338898 378.286621,237.753922 
	C375.989655,239.660965 373.893921,241.810379 371.008423,244.555420 
	C378.591278,247.947800 384.342346,253.933029 393.641937,250.245728 
M210.030151,243.694061 
	C210.030151,245.980713 210.030151,248.267365 210.030151,250.594498 
	C213.849091,250.594498 217.218323,250.594498 220.703461,250.594498 
	C220.703461,244.489182 220.703461,238.776901 220.703461,232.442993 
	C227.192688,232.442993 233.402939,232.442993 239.774902,232.442993 
	C239.774902,230.485077 239.772766,229.159180 239.775253,227.833298 
	C239.787827,221.135239 239.788254,221.139053 233.333771,221.149902 
	C229.093384,221.157043 224.852966,221.151245 220.686203,221.151245 
	C220.198486,213.959976 220.198486,213.959518 226.319824,213.958359 
	C230.731934,213.957535 235.144058,213.958176 239.419281,213.958176 
	C239.419281,209.821136 239.419281,206.422745 239.419281,203.016510 
	C229.469193,203.016510 219.890778,203.016510 210.024414,203.016510 
	C210.024414,204.831009 210.026321,206.316605 210.024094,207.802200 
	C210.013107,215.131363 209.998459,222.460510 209.990295,229.789673 
	C209.985489,234.115784 209.990356,238.441910 210.030151,243.694061 
M256.106476,207.703400 
	C256.106476,209.648178 256.106476,211.592957 256.106476,214.021637 
	C260.857849,214.021637 265.104645,214.021637 269.733154,214.021637 
	C269.733154,226.597412 269.733154,238.683609 269.733154,250.791931 
	C273.241394,250.791931 276.354034,250.791931 279.960938,250.791931 
	C279.960938,241.337341 279.960175,232.067215 279.961151,222.797104 
	C279.962097,213.990448 279.962982,214.002945 288.519379,213.963715 
	C290.099701,213.956467 291.679382,213.802521 293.158051,213.721802 
	C293.158051,209.852341 293.158051,206.459641 293.158051,202.866455 
	C280.694519,202.866455 268.609467,202.866455 256.110107,202.866455 
	C256.110107,204.222824 256.110107,205.519653 256.106476,207.703400 
M380.229889,336.372711 
	C375.764038,336.712524 371.298187,337.052368 367.652344,337.329773 
	C360.225952,336.995514 353.424011,336.689331 345.168579,336.317749 
	C346.827942,340.602051 347.367096,345.095062 349.894684,347.485474 
	C351.736420,349.227264 356.560791,349.032104 357.374146,343.767090 
	C360.942383,349.022491 362.987152,349.228149 366.979889,345.687836 
	C372.375885,350.473297 378.756226,346.105377 384.290985,347.734039 
	C385.889740,348.204498 388.003815,346.923615 390.686218,346.240875 
	C390.668762,346.227966 392.399384,347.959717 392.768066,347.706726 
	C395.344849,345.938538 397.636627,348.054718 400.010651,347.855408 
	C405.045929,347.432617 405.180145,344.637817 404.431854,340.316681 
	C403.797729,336.654968 401.499512,336.555237 399.218964,336.558838 
	C397.926880,336.560852 396.637238,338.098999 395.787628,338.656097 
	C394.862061,337.774628 394.148804,336.496704 393.377258,336.460541 
	C389.279449,336.268219 385.167023,336.387451 380.229889,336.372711 
M339.051178,313.605255 
	C344.044495,309.341553 347.167877,304.098267 348.568176,297.572205 
	C350.416626,288.957672 345.293304,275.868958 337.999908,271.872101 
	C325.088074,264.796265 315.434937,266.089966 304.764648,276.376282 
	C295.501709,285.305847 296.957947,299.549225 301.958160,307.083099 
	C310.447113,319.873566 326.582581,321.600403 339.051178,313.605255 
M252.997726,240.472565 
	C252.997726,228.037003 252.997726,215.601456 252.997726,203.035141 
	C249.321335,203.035141 246.112900,203.035141 242.849945,203.035141 
	C242.849945,219.083359 242.849945,234.816223 242.849945,250.672516 
	C246.293976,250.672516 249.512878,250.672516 252.997955,250.672516 
	C252.997955,247.404114 252.997955,244.432114 252.997726,240.472565 
M223.876678,339.015442 
	C223.420547,334.501526 220.221893,336.937347 218.421555,337.212799 
	C215.966904,337.588348 213.341965,338.515869 211.432678,340.021576 
	C210.597107,340.680573 210.654037,344.243317 211.529572,344.932281 
	C213.374146,346.383911 216.009888,347.455536 218.350357,347.514282 
	C222.519897,347.619049 226.724396,346.433838 230.890106,346.563629 
	C236.148819,346.727539 241.383316,347.668060 248.200226,348.455048 
	C243.635666,343.964905 243.090897,340.393555 248.036118,336.105469 
	C241.276627,336.727844 235.855972,338.557587 231.207611,337.368439 
	C222.455658,335.129517 227.246216,341.740479 225.825272,344.206329 
	C225.705200,344.414703 225.445374,344.542542 224.500870,345.343384 
	C224.248978,343.127197 224.061798,341.480286 223.876678,339.015442 
M273.305176,347.881653 
	C275.113922,347.881653 276.922699,347.881653 278.731445,347.881653 
	C278.920105,347.533966 279.108795,347.186249 279.297485,346.838562 
	C278.288757,345.952972 277.279999,345.067383 277.389008,345.163086 
	C278.068573,341.977142 278.612427,339.427368 279.099365,337.144409 
	C270.864044,337.144409 263.185791,337.144409 255.403336,337.144409 
	C255.274612,337.725555 255.046722,338.754456 254.888275,339.469788 
	C253.638306,338.323608 252.414078,337.201080 250.546753,335.488831 
	C250.546753,340.377655 250.546753,344.038727 250.546753,347.699829 
	C250.899628,347.877899 251.252502,348.055939 251.605377,348.234009 
	C252.677094,346.933075 253.748810,345.632141 253.953751,345.383362 
	C255.853302,346.259369 257.577484,347.633270 259.399750,347.778839 
	C263.691986,348.121674 268.031006,347.878723 273.305176,347.881653 
M409.193359,343.196838 
	C410.687988,348.581512 415.026306,349.875122 419.454132,345.125275 
	C423.656433,349.790741 424.121887,349.580078 429.574615,340.051849 
	C429.882721,343.029327 430.132263,345.441132 430.364380,347.684265 
	C431.038116,347.789093 431.246399,347.892761 431.356934,347.828369 
	C434.778717,345.836121 432.150726,340.447571 436.370178,338.892273 
	C435.789032,338.058807 435.255615,336.549774 434.618744,336.504761 
	C431.227997,336.264984 427.811310,336.391907 424.327789,336.391907 
	C424.120056,339.307556 423.972015,341.385468 423.823944,343.463379 
	C423.511444,343.449402 423.198914,343.435425 422.886414,343.421448 
	C422.886414,341.163269 422.886414,338.905090 422.886414,335.445770 
	C420.727692,336.790619 419.388794,337.624725 418.008118,338.484863 
	C413.348328,334.649658 411.080200,335.559204 409.193359,343.196838 
z"/>
<path fill="#F0F0F0" opacity="1.000000" stroke="none" 
	d="
M285.037415,94.870049 
	C286.076599,95.246819 287.114960,95.949898 288.155090,95.952522 
	C312.597198,96.014244 337.039490,96.000359 361.931305,96.000359 
	C361.931305,78.041946 361.931305,60.329109 361.931305,41.269737 
	C368.430115,42.222149 374.317841,43.085007 380.589111,44.496616 
	C380.669861,49.837128 380.117157,54.628239 380.104767,59.420742 
	C380.025177,90.226288 380.130341,121.032539 379.939301,151.837097 
	C379.923828,154.330353 378.853546,157.755127 377.045746,159.115128 
	C372.465698,162.560715 367.186859,165.077454 362.187866,167.966187 
	C362.138794,155.145615 362.116180,142.324814 362.006378,129.504761 
	C361.993011,127.942070 361.511200,126.383385 361.456238,124.264328 
	C362.961304,123.476257 364.301086,122.911209 365.544281,123.075714 
	C370.692291,123.756935 372.362885,120.627594 373.699677,116.039742 
	C371.415039,116.039742 369.605621,116.039711 367.796204,116.039742 
	C341.803497,116.040161 315.810486,115.978401 289.818451,116.112228 
	C286.177856,116.130974 284.714081,115.198936 284.923218,111.359390 
	C285.221771,105.877129 285.023499,100.367813 285.037415,94.870049 
z"/>
<path fill="#D0D2D3" opacity="1.000000" stroke="none" 
	d="
M285.018829,94.409927 
	C285.023499,100.367813 285.221771,105.877129 284.923218,111.359390 
	C284.714081,115.198936 286.177856,116.130974 289.818451,116.112228 
	C315.810486,115.978401 341.803497,116.040161 367.796204,116.039742 
	C369.605621,116.039711 371.415039,116.039742 373.699677,116.039742 
	C372.362885,120.627594 370.692291,123.756935 365.544281,123.075714 
	C364.301086,122.911209 362.961304,123.476257 361.287537,123.868576 
	C337.092926,124.001633 313.276276,124.037842 289.461090,123.870491 
	C285.930664,123.845680 284.867584,124.934738 284.908295,128.422592 
	C285.071594,142.411118 284.975983,156.402649 284.975952,170.393082 
	C284.975952,170.559631 284.967743,170.726395 284.973602,170.892700 
	C285.048370,173.012863 285.125000,175.132965 285.201141,177.253082 
	C282.112762,177.307877 279.010681,177.564697 275.940063,177.357101 
	C273.207642,177.172379 270.510040,176.473190 267.371704,175.496552 
	C267.616913,173.552933 267.937378,171.274796 269.019958,170.823105 
	C273.211182,169.074310 273.067871,165.835571 273.063232,162.215408 
	C273.011993,122.232521 273.049408,82.249535 273.062805,42.266575 
	C276.844086,42.266575 280.625336,42.266575 285.000244,42.266575 
	C285.000244,59.551090 285.000244,76.750450 285.018829,94.409927 
z"/>
<path fill="#EDEDED" opacity="1.000000" stroke="none" 
	d="
M272.639282,42.350887 
	C273.049408,82.249535 273.011993,122.232521 273.063232,162.215408 
	C273.067871,165.835571 273.211182,169.074310 269.019958,170.823105 
	C267.937378,171.274796 267.616913,173.552933 266.956116,175.363815 
	C257.376465,171.291229 255.198700,168.913116 255.199539,159.934464 
	C255.202606,127.002045 255.437332,94.067123 255.082642,61.138565 
	C254.960190,49.770988 259.150543,46.729542 269.404755,43.128262 
	C270.311096,42.809948 271.277313,42.662182 272.639282,42.350887 
z"/>
<path fill="#CDCED0" opacity="1.000000" stroke="none" 
	d="
M362.102112,168.417633 
	C367.186859,165.077454 372.465698,162.560715 377.045746,159.115128 
	C378.853546,157.755127 379.923828,154.330353 379.939301,151.837097 
	C380.130341,121.032539 380.025177,90.226288 380.104767,59.420742 
	C380.117157,54.628239 380.669861,49.837128 380.966553,44.631119 
	C388.518677,47.053226 392.060791,51.944389 391.960754,60.572502 
	C391.573151,94.004570 391.808838,127.443871 391.814819,160.880478 
	C391.816254,168.880447 384.360504,176.453552 376.333252,176.831573 
	C371.779236,177.046051 367.242004,177.617416 362.016327,178.089554 
	C362.016327,174.738342 362.016327,171.803726 362.102112,168.417633 
z"/>
<path fill="#EEEEEE" opacity="1.000000" stroke="none" 
	d="
M231.946625,156.028458 
	C225.994217,148.398819 225.151733,139.679001 226.881958,130.654007 
	C214.133804,125.270782 214.134201,125.270782 214.137451,111.502716 
	C214.138306,107.841583 214.135956,104.180443 214.135162,100.519310 
	C214.133835,94.379265 215.618210,92.513054 221.634796,90.998367 
	C223.210312,90.601715 224.760345,90.103836 226.578125,89.578438 
	C226.632874,78.765427 224.655685,67.084488 237.616547,60.993595 
	C238.536362,63.295452 238.972458,65.234993 238.976471,67.175423 
	C239.023834,90.099480 238.792114,113.026810 239.126892,135.946075 
	C239.238571,143.592834 239.244751,150.709381 232.340103,155.722672 
	C232.205765,155.820221 232.077637,155.926331 231.946625,156.028458 
z"/>
<path fill="#EBEBEC" opacity="1.000000" stroke="none" 
	d="
M302.016022,202.751953 
	C309.824371,200.936752 311.019775,207.619003 313.681793,211.522385 
	C317.873444,217.668777 321.151825,224.438004 325.743225,230.797211 
	C325.743225,221.525711 325.743225,212.254196 325.743225,202.834015 
	C329.468292,202.834015 332.584076,202.834015 336.340576,202.834015 
	C336.340576,218.832611 336.340576,234.776169 336.340576,250.812546 
	C335.015961,250.887970 334.194977,250.967728 333.373230,250.976486 
	C323.711670,251.079575 324.081360,250.889954 319.630280,242.081375 
	C316.509552,235.905380 312.208038,230.326004 307.377014,224.759644 
	C307.377014,233.242157 307.377014,241.724670 307.377014,250.595901 
	C303.581848,250.595901 300.354675,250.595901 296.727020,250.595901 
	C296.727020,234.937302 296.727020,219.094406 296.727020,202.751572 
	C298.365936,202.751572 299.977478,202.751572 302.016022,202.751953 
z"/>
<path fill="#EEEFF0" opacity="1.000000" stroke="none" 
	d="
M399.178864,152.971512 
	C399.178864,121.453049 399.178864,89.934586 399.178864,57.012436 
	C404.452637,58.947124 409.077545,60.643764 413.691833,63.040855 
	C413.450134,65.700958 413.022034,67.660202 413.018036,69.620316 
	C412.970978,92.609535 412.987671,115.598869 412.987305,138.588181 
	C412.987152,147.557678 408.604187,152.122772 399.178864,152.971512 
z"/>
<path fill="#D0D1D2" opacity="1.000000" stroke="none" 
	d="
M399.094086,153.418259 
	C408.604187,152.122772 412.987152,147.557678 412.987305,138.588181 
	C412.987671,115.598869 412.970978,92.609535 413.018036,69.620316 
	C413.022034,67.660202 413.450134,65.700958 413.848846,63.355682 
	C418.475800,65.676323 419.413300,70.367256 419.954742,74.844566 
	C420.526672,79.574219 420.083038,84.426689 420.083038,89.474770 
	C422.443970,90.045914 424.466400,90.487434 426.462189,91.027458 
	C431.297363,92.335800 433.185883,95.463310 433.057556,100.638710 
	C432.859833,108.612022 433.005463,116.593849 433.005463,124.775665 
	C431.182831,125.811325 429.424774,127.517776 427.463409,127.797211 
	C420.515106,128.787155 419.755829,132.985886 420.274048,138.919876 
	C420.591125,142.551239 419.908600,146.527878 418.665985,149.986984 
	C415.494202,158.816406 407.569794,160.541687 399.009308,162.237289 
	C399.009308,159.110901 399.009308,156.487946 399.094086,153.418259 
z"/>
<path fill="#EAEAEA" opacity="1.000000" stroke="none" 
	d="
M357.950684,240.533112 
	C361.755432,240.532837 365.063507,240.532837 368.668396,240.532837 
	C368.668396,244.037842 368.668396,247.247742 368.668396,250.749756 
	C359.035767,250.749756 349.455902,250.749756 339.530640,250.749756 
	C339.530640,235.000122 339.530640,219.277100 339.530640,203.104523 
	C349.116974,203.104523 358.815613,203.104523 368.749329,203.104523 
	C368.749329,206.366226 368.749329,209.804367 368.749329,213.762344 
	C363.014465,213.762344 357.119873,213.762344 350.910370,213.762344 
	C350.910370,216.337051 350.910370,218.413269 350.910370,221.171585 
	C354.900482,221.171585 359.024506,221.497345 363.074371,221.088562 
	C368.056213,220.585709 369.681915,222.581757 369.011200,227.273056 
	C368.783081,228.868607 368.975037,230.524231 368.975037,232.526993 
	C362.833710,232.526993 357.069763,232.526993 350.945984,232.526993 
	C350.945984,235.262939 350.945984,237.627365 350.945984,240.533386 
	C353.240814,240.533386 355.347382,240.533386 357.950684,240.533112 
z"/>
<path fill="#EAEAEA" opacity="1.000000" stroke="none" 
	d="
M420.314758,240.206696 
	C422.570953,238.993164 424.446899,237.602310 426.322845,236.211441 
	C424.539246,235.020294 422.687744,232.724640 420.983795,232.829361 
	C413.645203,233.280472 407.310638,226.554504 405.826630,221.890778 
	C404.000854,216.152908 406.219879,209.844208 411.223328,205.941376 
	C416.182465,202.073074 423.899109,201.816254 429.959717,205.273178 
	C431.506134,206.155258 433.123566,206.912903 434.712952,207.730072 
	C432.287659,213.823959 429.126862,215.500900 422.831909,214.185867 
	C419.915222,213.576599 416.729065,213.463608 416.237732,217.291061 
	C415.749817,221.091919 418.934448,221.910355 421.826324,222.018936 
	C435.058197,222.515656 438.572266,233.140533 436.388336,241.022430 
	C434.904510,246.377380 424.743500,253.529282 418.080688,250.935852 
	C413.690521,249.227051 409.445618,247.144989 404.099884,244.769821 
	C407.634277,241.649109 409.970154,239.586655 412.412048,237.430573 
	C414.729401,238.231155 417.331970,239.130264 420.314758,240.206696 
z"/>
<path fill="#E8E8E9" opacity="1.000000" stroke="none" 
	d="
M393.271667,250.370850 
	C384.342346,253.933029 378.591278,247.947800 371.008423,244.555420 
	C373.893921,241.810379 375.989655,239.660965 378.286621,237.753922 
	C378.786530,237.338898 380.048981,237.640411 380.886810,237.874588 
	C382.894714,238.435791 384.889069,239.075211 386.834045,239.825287 
	C390.006958,241.048904 392.501648,239.706985 392.708832,236.828781 
	C392.800110,235.560654 389.705109,233.725861 387.760345,232.723328 
	C384.393860,230.987885 380.314423,230.330078 377.395020,228.095459 
	C371.087921,223.267853 370.297028,216.842728 374.244019,209.763779 
	C377.062561,204.708694 384.951721,201.441406 390.931549,203.265457 
	C394.620728,204.390778 398.101929,206.197891 401.753784,207.731369 
	C398.693512,213.035614 395.843445,217.090332 389.130798,214.154343 
	C386.720245,213.100021 383.011627,213.879135 383.095703,217.173126 
	C383.138458,218.848816 386.421295,221.591980 388.507263,221.874359 
	C400.056244,223.437729 406.636047,231.502914 402.597961,241.073212 
	C401.051697,244.737915 396.709869,247.223068 393.271667,250.370850 
z"/>
<path fill="#EDEDED" opacity="1.000000" stroke="none" 
	d="
M210.010529,243.231049 
	C209.990356,238.441910 209.985489,234.115784 209.990295,229.789673 
	C209.998459,222.460510 210.013107,215.131363 210.024094,207.802200 
	C210.026321,206.316605 210.024414,204.831009 210.024414,203.016510 
	C219.890778,203.016510 229.469193,203.016510 239.419281,203.016510 
	C239.419281,206.422745 239.419281,209.821136 239.419281,213.958176 
	C235.144058,213.958176 230.731934,213.957535 226.319824,213.958359 
	C220.198486,213.959518 220.198486,213.959976 220.686203,221.151245 
	C224.852966,221.151245 229.093384,221.157043 233.333771,221.149902 
	C239.788254,221.139053 239.787827,221.135239 239.775253,227.833298 
	C239.772766,229.159180 239.774902,230.485077 239.774902,232.442993 
	C233.402939,232.442993 227.192688,232.442993 220.703461,232.442993 
	C220.703461,238.776901 220.703461,244.489182 220.703461,250.594498 
	C217.218323,250.594498 213.849091,250.594498 210.030151,250.594498 
	C210.030151,248.267365 210.030151,245.980713 210.010529,243.231049 
z"/>
<path fill="#CECFD1" opacity="1.000000" stroke="none" 
	d="
M232.103271,156.344147 
	C232.077637,155.926331 232.205765,155.820221 232.340103,155.722672 
	C239.244751,150.709381 239.238571,143.592834 239.126892,135.946075 
	C238.792114,113.026810 239.023834,90.099480 238.976471,67.175423 
	C238.972458,65.234993 238.536362,63.295452 237.967346,61.062099 
	C240.848831,59.675461 244.064011,58.582222 247.722687,57.338181 
	C247.722687,92.851952 247.722687,127.276245 247.722687,162.875443 
	C242.157333,160.638321 237.208633,158.649078 232.103271,156.344147 
z"/>
<path fill="#EEEEEE" opacity="1.000000" stroke="none" 
	d="
M256.108276,207.259933 
	C256.110107,205.519653 256.110107,204.222824 256.110107,202.866455 
	C268.609467,202.866455 280.694519,202.866455 293.158051,202.866455 
	C293.158051,206.459641 293.158051,209.852341 293.158051,213.721802 
	C291.679382,213.802521 290.099701,213.956467 288.519379,213.963715 
	C279.962982,214.002945 279.962097,213.990448 279.961151,222.797104 
	C279.960175,232.067215 279.960938,241.337341 279.960938,250.791931 
	C276.354034,250.791931 273.241394,250.791931 269.733154,250.791931 
	C269.733154,238.683609 269.733154,226.597412 269.733154,214.021637 
	C265.104645,214.021637 260.857849,214.021637 256.106476,214.021637 
	C256.106476,211.592957 256.106476,209.648178 256.108276,207.259933 
z"/>
<path fill="#E7E7E8" opacity="1.000000" stroke="none" 
	d="
M380.644775,336.385742 
	C385.167023,336.387451 389.279449,336.268219 393.377258,336.460541 
	C394.148804,336.496704 394.862061,337.774628 395.787628,338.656097 
	C396.637238,338.098999 397.926880,336.560852 399.218964,336.558838 
	C401.499512,336.555237 403.797729,336.654968 404.431854,340.316681 
	C405.180145,344.637817 405.045929,347.432617 400.010651,347.855408 
	C397.636627,348.054718 395.344849,345.938538 392.768066,347.706726 
	C392.399384,347.959717 390.668762,346.227966 390.686218,346.240875 
	C388.003815,346.923615 385.889740,348.204498 384.290985,347.734039 
	C378.756226,346.105377 372.375885,350.473297 366.979889,345.687836 
	C362.987152,349.228149 360.942383,349.022491 357.374146,343.767090 
	C356.560791,349.032104 351.736420,349.227264 349.894684,347.485474 
	C347.367096,345.095062 346.827942,340.602051 345.168579,336.317749 
	C353.424011,336.689331 360.225952,336.995514 367.652344,337.329773 
	C371.298187,337.052368 375.764038,336.712524 380.644775,336.385742 
z"/>
<path fill="#DFDFE0" opacity="1.000000" stroke="none" 
	d="
M338.737885,313.802490 
	C326.582581,321.600403 310.447113,319.873566 301.958160,307.083099 
	C296.957947,299.549225 295.501709,285.305847 304.764648,276.376282 
	C315.434937,266.089966 325.088074,264.796265 337.999908,271.872101 
	C345.293304,275.868958 350.416626,288.957672 348.568176,297.572205 
	C347.167877,304.098267 344.044495,309.341553 338.737885,313.802490 
M313.822205,274.029999 
	C310.527374,277.377106 306.545258,280.290741 304.097229,284.171967 
	C300.329498,290.145569 300.699036,296.966003 304.243774,302.974976 
	C308.767334,310.643280 315.757538,316.036194 324.815887,315.066101 
	C335.804108,313.889343 347.145233,303.922791 345.031250,290.615295 
	C342.543243,274.953613 328.645111,268.167480 313.822205,274.029999 
z"/>
<path fill="#F1F1F2" opacity="1.000000" stroke="none" 
	d="
M252.997833,240.966339 
	C252.997955,244.432114 252.997955,247.404114 252.997955,250.672516 
	C249.512878,250.672516 246.293976,250.672516 242.849945,250.672516 
	C242.849945,234.816223 242.849945,219.083359 242.849945,203.035141 
	C246.112900,203.035141 249.321335,203.035141 252.997726,203.035141 
	C252.997726,215.601456 252.997726,228.037003 252.997833,240.966339 
z"/>
<path fill="#DFDFE0" opacity="1.000000" stroke="none" 
	d="
M311.092499,341.613464 
	C310.931671,343.350830 311.378418,345.649841 310.438263,346.666840 
	C309.506958,347.674316 307.177307,347.389160 304.545441,347.821289 
	C305.250183,345.699493 305.732819,344.852112 305.790771,343.976593 
	C306.275757,336.646942 306.251221,336.611420 313.760193,336.375153 
	C316.859436,336.277618 320.000854,336.084473 323.050262,336.486877 
	C324.436157,336.669769 325.644897,338.194885 326.271667,338.640381 
	C328.128265,337.927307 329.996033,336.824799 331.980743,336.541473 
	C334.690155,336.154694 337.501862,336.209717 340.245422,336.409180 
	C343.388031,336.637695 343.562988,337.575470 341.839966,340.322906 
	C341.052856,341.578003 341.158234,343.359589 340.575531,344.786743 
	C340.116669,345.910553 339.223816,346.857178 338.523743,347.882507 
	C337.902405,346.932678 337.008820,346.056366 336.727417,345.014709 
	C336.361145,343.658936 336.480957,342.171844 336.391602,340.741272 
	C335.872864,340.688354 335.354156,340.635437 334.835419,340.582489 
	C334.521973,342.810852 334.208527,345.039185 333.745239,348.332825 
	C330.445923,347.691986 326.653107,346.955322 322.860291,346.218628 
	C322.498962,345.327545 322.137604,344.436432 321.776276,343.545349 
	C321.360992,345.485718 320.945709,347.426056 320.530426,349.366394 
	C319.804810,348.762238 319.079224,348.158081 318.353638,347.553894 
	C318.830505,345.495087 319.307404,343.436279 319.811310,341.260742 
	C319.015350,341.081665 318.237122,340.906586 317.182770,340.669373 
	C317.059631,342.971069 316.947510,345.066895 316.835419,347.162689 
	C316.500092,347.502838 316.164795,347.842987 315.829498,348.183136 
	C314.930176,347.173828 313.709381,346.297058 313.223083,345.117462 
	C312.748138,343.965485 313.023010,342.504395 312.429382,340.676880 
	C311.051727,340.174805 310.213501,340.174805 308.221710,340.174805 
	C309.949036,341.040436 310.520752,341.326965 311.092499,341.613464 
z"/>
<path fill="#DCDDDE" opacity="1.000000" stroke="none" 
	d="
M223.875641,339.424408 
	C224.061798,341.480286 224.248978,343.127197 224.500870,345.343384 
	C225.445374,344.542542 225.705200,344.414703 225.825272,344.206329 
	C227.246216,341.740479 222.455658,335.129517 231.207611,337.368439 
	C235.855972,338.557587 241.276627,336.727844 248.036118,336.105469 
	C243.090897,340.393555 243.635666,343.964905 248.200226,348.455048 
	C241.383316,347.668060 236.148819,346.727539 230.890106,346.563629 
	C226.724396,346.433838 222.519897,347.619049 218.350357,347.514282 
	C216.009888,347.455536 213.374146,346.383911 211.529572,344.932281 
	C210.654037,344.243317 210.597107,340.680573 211.432678,340.021576 
	C213.341965,338.515869 215.966904,337.588348 218.421555,337.212799 
	C220.221893,336.937347 223.420547,334.501526 223.875641,339.424408 
z"/>
<path fill="#E3E5E5" opacity="1.000000" stroke="none" 
	d="
M272.828125,347.877197 
	C268.031006,347.878723 263.691986,348.121674 259.399750,347.778839 
	C257.577484,347.633270 255.853302,346.259369 253.953751,345.383362 
	C253.748810,345.632141 252.677094,346.933075 251.605377,348.234009 
	C251.252502,348.055939 250.899628,347.877899 250.546753,347.699829 
	C250.546753,344.038727 250.546753,340.377655 250.546753,335.488831 
	C252.414078,337.201080 253.638306,338.323608 254.888275,339.469788 
	C255.046722,338.754456 255.274612,337.725555 255.403336,337.144409 
	C263.185791,337.144409 270.864044,337.144409 279.099365,337.144409 
	C278.612427,339.427368 278.068573,341.977142 277.389008,345.163086 
	C277.279999,345.067383 278.288757,345.952972 279.297485,346.838562 
	C279.108795,347.186249 278.920105,347.533966 278.731445,347.881653 
	C276.922699,347.881653 275.113922,347.881653 272.828125,347.877197 
z"/>
<path fill="#DCDDDE" opacity="1.000000" stroke="none" 
	d="
M409.099121,342.812927 
	C411.080200,335.559204 413.348328,334.649658 418.008118,338.484863 
	C419.388794,337.624725 420.727692,336.790619 422.886414,335.445770 
	C422.886414,338.905090 422.886414,341.163269 422.886414,343.421448 
	C423.198914,343.435425 423.511444,343.449402 423.823944,343.463379 
	C423.972015,341.385468 424.120056,339.307556 424.327789,336.391907 
	C427.811310,336.391907 431.227997,336.264984 434.618744,336.504761 
	C435.255615,336.549774 435.789032,338.058807 436.370178,338.892273 
	C432.150726,340.447571 434.778717,345.836121 431.356934,347.828369 
	C431.246399,347.892761 431.038116,347.789093 430.364380,347.684265 
	C430.132263,345.441132 429.882721,343.029327 429.574615,340.051849 
	C424.121887,349.580078 423.656433,349.790741 419.454132,345.125275 
	C415.026306,349.875122 410.687988,348.581512 409.099121,342.812927 
z"/>
<path fill="#E3E5E5" opacity="1.000000" stroke="none" 
	d="
M291.976440,337.943665 
	C296.328735,335.695160 300.400177,336.987030 300.996979,340.849701 
	C301.562836,344.511688 300.047241,347.369690 296.416656,347.702545 
	C293.125244,348.004272 290.297302,346.407288 290.816833,341.513977 
	C291.392517,339.850250 291.684479,338.896973 291.976440,337.943665 
z"/>
<path fill="#CDCED0" opacity="1.000000" stroke="none" 
	d="
M291.603760,337.866943 
	C291.684479,338.896973 291.392517,339.850250 290.916748,341.138672 
	C287.273895,339.945099 289.050873,342.929993 288.587555,343.972168 
	C288.009033,345.273407 287.458588,346.587097 286.896057,347.895386 
	C286.365479,346.545197 285.917236,345.154694 285.281036,343.856293 
	C284.655029,342.578735 283.553833,341.472351 283.191467,340.145966 
	C282.875732,338.990295 283.299286,337.632660 283.396210,336.364258 
	C286.007843,336.839600 288.619476,337.314941 291.603760,337.866943 
z"/>
<path fill="#050505" opacity="1.000000" stroke="none" 
	d="
M314.132812,273.790955 
	C328.645111,268.167480 342.543243,274.953613 345.031250,290.615295 
	C347.145233,303.922791 335.804108,313.889343 324.815887,315.066101 
	C315.757538,316.036194 308.767334,310.643280 304.243774,302.974976 
	C300.699036,296.966003 300.329498,290.145569 304.097229,284.171967 
	C306.545258,280.290741 310.527374,277.377106 314.132812,273.790955 
M309.508789,288.552460 
	C308.052246,289.221130 305.429291,289.783875 305.357117,290.578278 
	C305.137848,292.992584 305.734436,295.548279 306.457733,297.913025 
	C306.575043,298.296509 310.004730,298.309204 310.116577,297.944855 
	C310.716217,295.991364 310.749939,293.864166 311.493561,291.872620 
	C311.666168,291.857239 311.838806,291.841858 312.561096,292.088196 
	C312.805054,292.397064 313.049042,292.705963 313.138367,293.497437 
	C313.193878,293.656982 313.249420,293.816528 313.154816,294.748016 
	C313.606354,296.215576 314.057892,297.683105 314.806580,300.116486 
	C316.042358,298.270172 316.721710,297.662537 316.864929,296.947510 
	C317.089966,295.824036 316.639099,294.489410 317.072235,293.507996 
	C317.404602,292.754761 318.658600,292.408234 319.502747,291.880829 
	C319.090210,293.839996 318.660431,295.795868 318.286316,297.762360 
	C318.237854,298.017120 318.477203,298.326599 318.863068,299.360687 
	C320.347382,298.418365 321.689117,297.566559 322.399689,297.115448 
	C324.777130,297.838989 326.618896,298.716797 328.524231,298.888336 
	C330.355347,299.053131 332.252289,298.486633 334.126343,298.240692 
	C334.217133,296.359528 334.328033,294.062408 334.438904,291.765259 
	C335.061829,291.805511 335.684753,291.845795 336.307678,291.886047 
	C336.398865,293.473022 336.264282,295.120636 336.667725,296.623810 
	C336.901794,297.495819 338.000671,298.135712 338.710388,298.880066 
	C339.337341,298.194305 340.343201,297.594574 340.522003,296.807068 
	C341.119720,294.174286 341.421539,291.474335 341.864929,288.618286 
	C337.056061,288.618286 332.444397,288.618286 327.778992,288.618286 
	C327.487091,290.079865 327.236755,291.333191 327.074799,292.144104 
	C325.829285,290.921997 324.647125,288.737854 323.259583,288.598450 
	C319.549835,288.225861 315.751923,288.730896 311.310150,288.931335 
	C310.865387,288.984467 310.420624,289.037628 309.508789,288.552460 
z"/>
<path fill="#000000" opacity="1.000000" stroke="none" 
	d="
M311.432678,341.357483 
	C310.520752,341.326965 309.949036,341.040436 308.221710,340.174805 
	C310.213501,340.174805 311.051727,340.174805 312.154053,340.360291 
	C312.203033,340.731018 311.987946,340.916260 311.432678,341.357483 
z"/>
<path fill="#DCDDDE" opacity="1.000000" stroke="none" 
	d="
M311.989044,288.887177 
	C315.751923,288.730896 319.549835,288.225861 323.259583,288.598450 
	C324.647125,288.737854 325.829285,290.921997 327.074799,292.144104 
	C327.236755,291.333191 327.487091,290.079865 327.778992,288.618286 
	C332.444397,288.618286 337.056061,288.618286 341.864929,288.618286 
	C341.421539,291.474335 341.119720,294.174286 340.522003,296.807068 
	C340.343201,297.594574 339.337341,298.194305 338.710388,298.880066 
	C338.000671,298.135712 336.901794,297.495819 336.667725,296.623810 
	C336.264282,295.120636 336.398865,293.473022 336.307678,291.886047 
	C335.684753,291.845795 335.061829,291.805511 334.438904,291.765259 
	C334.328033,294.062408 334.217133,296.359528 334.126343,298.240692 
	C332.252289,298.486633 330.355347,299.053131 328.524231,298.888336 
	C326.618896,298.716797 324.777130,297.838989 322.399689,297.115448 
	C321.689117,297.566559 320.347382,298.418365 318.863068,299.360687 
	C318.477203,298.326599 318.237854,298.017120 318.286316,297.762360 
	C318.660431,295.795868 319.090210,293.839996 319.502747,291.880829 
	C318.658600,292.408234 317.404602,292.754761 317.072235,293.507996 
	C316.639099,294.489410 317.089966,295.824036 316.864929,296.947510 
	C316.721710,297.662537 316.042358,298.270172 314.806580,300.116486 
	C314.057892,297.683105 313.606354,296.215576 313.358521,294.268280 
	C313.720093,293.456451 313.630341,293.198547 313.292999,293.014832 
	C313.049042,292.705963 312.805054,292.397064 312.283081,291.589905 
	C311.999695,290.356812 311.994385,289.621979 311.989044,288.887177 
z"/>
<path fill="#E3E5E5" opacity="1.000000" stroke="none" 
	d="
M310.979126,291.796997 
	C310.749939,293.864166 310.716217,295.991364 310.116577,297.944855 
	C310.004730,298.309204 306.575043,298.296509 306.457733,297.913025 
	C305.734436,295.548279 305.137848,292.992584 305.357117,290.578278 
	C305.429291,289.783875 308.052246,289.221130 309.851929,289.093140 
	C310.456421,290.354919 310.717773,291.075958 310.979126,291.796997 
z"/>
<path fill="#D0D2D3" opacity="1.000000" stroke="none" 
	d="
M311.236328,291.834808 
	C310.717773,291.075958 310.456421,290.354919 310.085449,289.362305 
	C310.420624,289.037628 310.865387,288.984467 311.649597,288.909241 
	C311.994385,289.621979 311.999695,290.356812 312.008240,291.459045 
	C311.838806,291.841858 311.666168,291.857239 311.236328,291.834808 
z"/>
<path fill="#D0D2D3" opacity="1.000000" stroke="none" 
	d="
M313.215698,293.256134 
	C313.630341,293.198547 313.720093,293.456451 313.433594,293.882324 
	C313.249420,293.816528 313.193878,293.656982 313.215698,293.256134 
z"/>
</svg>