<svg width="40" height="40" viewBox="0 0 40 40" fill="none" xmlns="http://www.w3.org/2000/svg">
<path d="M6.66699 9C6.11471 9 5.66699 9.44772 5.66699 10C5.66699 10.5523 6.11471 11 6.66699 11V9ZM33.3337 11C33.8859 11 34.3337 10.5523 34.3337 10C34.3337 9.44772 33.8859 9 33.3337 9V11ZM6.66699 19C6.11471 19 5.66699 19.4477 5.66699 20C5.66699 20.5523 6.11471 21 6.66699 21V19ZM33.3337 21C33.8859 21 34.3337 20.5523 34.3337 20C34.3337 19.4477 33.8859 19 33.3337 19V21ZM6.66699 29C6.11471 29 5.66699 29.4477 5.66699 30C5.66699 30.5523 6.11471 31 6.66699 31V29ZM33.3337 31C33.8859 31 34.3337 30.5523 34.3337 30C34.3337 29.4477 33.8859 29 33.3337 29V31ZM6.66699 11H33.3337V9H6.66699V11ZM6.66699 21H33.3337V19H6.66699V21ZM6.66699 31H33.3337V29H6.66699V31Z" fill="#FAFAFA"/>
</svg>
